:FULLY-SPECIFIED
:FORCE-ALL-JOINTS-BE-3DOF
:DEGREES
611
root 5.74524 16.7688 -3.8552 2.33468 46.1648 -5.88884
lfemur -16.7017 24.6868 -23.7192
ltibia 37.9359 -0 0
lfoot -35.5121 26.3297 -0.0179363
ltoes 27.0594 -0 0
rfemur -53.4148 -18.132 24.4679
rtibia 69.4654 -0 0
rfoot 10.8052 28.1056 0.00973188
rtoes -10.8613 0 0
lowerback 3.1019 -3.59277 -3.87098
upperback -0.355093 -4.90612 1.40481
thorax -1.653 -2.40881 3.80672
lowerneck -9.18789 -8.41999 0.139305
upperneck 15.2305 -11.9086 2.7636
head 6.30943 -5.52649 -0.114886
lclavicle 1.02442e-13 1.25722e-14 -7.92492e-31
lhumerus -23.2769 -43.9498 95.9292
lradius 59.5806 -0 0
lwrist 20.377 0 0
lhand -11.7323 -1.10879 0.0118209
lfingers 7.12502 -0 0
lthumb 14.3144 28.3682 0.00987549
rclavicle 1.02442e-13 1.25722e-14 -7.92492e-31
rhumerus 20.6054 2.32065 -71.1155
rradius 112.171 -0 0
rwrist -58.1766 0 0
rhand -29.2948 -26.0662 0.00548093
rfingers 7.12502 -0 0
rthumb -2.63643 -56.0285 0.00527392
612
root 5.72492 16.7752 -3.85926 2.4024 45.2866 -5.84122
lfemur -16.7101 25.0997 -23.7906
ltibia 37.8229 -0 0
lfoot -35.5542 26.5813 -0.0118555
ltoes 27.3752 -0 0
rfemur -53.4506 -18.2197 24.6351
rtibia 69.8297 -0 0
rfoot 10.8215 28.4566 0.00643113
rtoes -10.5448 0 0
lowerback 3.04451 -3.63685 -3.89611
upperback -0.396331 -4.96681 1.37317
thorax -1.65854 -2.43858 3.78902
lowerneck -9.24334 -8.34151 0.199381
upperneck 15.3032 -11.8114 2.73269
head 6.33199 -5.47636 -0.131681
lclavicle 1.03874e-13 1.29018e-14 -5.23864e-31
lhumerus -22.9538 -44.3613 95.8677
lradius 59.6432 -0 0
lwrist 20.3493 0 0
lhand -11.5894 -1.05967 0.00781378
lfingers 7.12502 -0 0
lthumb 14.4523 28.4107 0.00652786
rclavicle 1.03874e-13 1.29018e-14 -5.23864e-31
rhumerus 20.4839 2.12755 -71.0602
rradius 111.847 -0 0
rwrist -58.3637 0 0
rhand -29.3435 -26.1332 0.00362329
rfingers 7.12502 -0 0
rthumb -2.68342 -56.0953 0.00348644
613
root 5.70868 16.7803 -3.86251 2.45503 44.5849 -5.80473
lfemur -16.7173 25.4297 -23.8479
ltibia 37.7327 -0 0
lfoot -35.5879 26.7823 -0.00686382
ltoes 27.6275 -0 0
rfemur -53.4794 -18.2897 24.7687
rtibia 70.1207 -0 0
rfoot 10.8345 28.7369 0.00372314
rtoes -10.2919 0 0
lowerback 2.99867 -3.67209 -3.91615
upperback -0.429264 -5.01534 1.34791
thorax -1.66295 -2.46237 3.77489
lowerneck -9.28758 -8.27876 0.247317
upperneck 15.3613 -11.7338 2.70809
head 6.35001 -5.43629 -0.145085
lclavicle 1.05018e-13 1.31651e-14 -3.03315e-31
lhumerus -22.6936 -44.69 95.8158
lradius 59.6931 -0 0
lwrist 20.3271 0 0
lhand -11.4752 -1.02042 0.00452405
lfingers 7.12502 -0 0
lthumb 14.5625 28.4447 0.00377953
rclavicle 1.05018e-13 1.31651e-14 -3.03315e-31
rhumerus 20.3868 1.97335 -71.0158
rradius 111.588 -0 0
rwrist -58.5132 0 0
rhand -29.3824 -26.1868 0.00209786
rfingers 7.12502 -0 0
rthumb -2.72097 -56.1486 0.00201862
614
root 5.69678 16.784 -3.86489 2.49282 44.0705 -5.77884
lfemur -16.7228 25.6716 -23.8901
ltibia 37.6665 -0 0
lfoot -35.6126 26.9297 -0.00312897
ltoes 27.8125 -0 0
rfemur -53.5006 -18.3409 24.8668
rtibia 70.334 -0 0
rfoot 10.844 28.9424 0.00169718
rtoes -10.1065 0 0
lowerback 2.96507 -3.69793 -3.93083
upperback -0.453398 -5.05092 1.32941
thorax -1.66618 -2.47981 3.76452
lowerneck -9.31997 -8.23274 0.282427
upperneck 15.4039 -11.6768 2.69012
head 6.36321 -5.40691 -0.154903
lclavicle 1.05857e-13 1.33581e-14 -1.38277e-31
lhumerus -22.5017 -44.9308 95.7763
lradius 59.7298 -0 0
lwrist 20.3109 0 0
lhand -11.3915 -0.991657 0.00206241
lfingers 7.12502 -0 0
lthumb 14.6433 28.4696 0.001723
rclavicle 1.05857e-13 1.33581e-14 -1.38277e-31
rhumerus 20.3155 1.86034 -70.983
rradius 111.399 -0 0
rwrist -58.6228 0 0
rhand -29.4109 -26.226 0.000956377
rfingers 7.12502 -0 0
rthumb -2.7485 -56.1877 0.000920255
615
root 5.68946 16.7863 -3.86635 2.51575 43.754 -5.76325
lfemur -16.7263 25.8204 -23.916
ltibia 37.6258 -0 0
lfoot -35.6277 27.0204 -0.000799495
ltoes 27.9263 -0 0
rfemur -53.5137 -18.3725 24.9271
rtibia 70.4653 -0 0
rfoot 10.8499 29.0689 0.000433641
rtoes -9.99246 0 0
lowerback 2.9444 -3.71384 -3.93986
upperback -0.468242 -5.07282 1.31804
thorax -1.66817 -2.49054 3.75814
lowerneck -9.33988 -8.20441 0.304013
upperneck 15.4301 -11.6417 2.67908
head 6.37133 -5.38884 -0.16094
lclavicle 1.06373e-13 1.34769e-14 -3.53325e-32
lhumerus -22.383 -45.0789 95.7513
lradius 59.7523 -0 0
lwrist 20.3009 0 0
lhand -11.34 -0.97396 0.000526983
lfingers 7.12502 -0 0
lthumb 14.693 28.485 0.000440259
rclavicle 1.06373e-13 1.34769e-14 -3.53325e-32
rhumerus 20.2716 1.79083 -70.9628
rradius 111.282 -0 0
rwrist -58.6902 0 0
rhand -29.4284 -26.2502 0.000244373
rfingers 7.12502 -0 0
rthumb -2.76544 -56.2118 0.000235143
616
root 5.68696 16.7871 -3.86685 2.52351 43.6461 -5.75799
lfemur -16.7275 25.8711 -23.9249
ltibia 37.6119 0 0
lfoot -35.6329 27.0513 0
ltoes 27.9651 0 0
rfemur -53.5182 -18.3832 24.9477
rtibia 70.51 0 0
rfoot 10.8519 29.112 0
rtoes -9.95358 0 0
lowerback 2.93735 -3.71926 -3.94293
upperback -0.4733 -5.08028 1.31416
thorax -1.66885 -2.4942 3.75597
lowerneck -9.34667 -8.19475 0.311368
upperneck 15.439 -11.6298 2.67532
head 6.3741 -5.38268 -0.162997
lclavicle 1.06549e-13 1.35174e-14 0
lhumerus -22.3425 -45.1294 95.7427
lradius 59.76 0 0
lwrist 20.2975 0 0
lhand -11.3224 -0.967928 0
lfingers 7.12502 0 0
lthumb 14.7099 28.4902 0
rclavicle 1.06549e-13 1.35174e-14 0
rhumerus 20.2566 1.76714 -70.9559
rradius 111.242 0 0
rwrist -58.7132 0 0
rhand -29.4344 -26.2584 0
rfingers 7.12502 0 0
rthumb -2.77121 -776.22 0
617
root 5.68666 16.7859 -3.86342 2.56499 43.5731 -5.72614
lfemur -16.7226 25.8679 -23.9377
ltibia 37.6083 -0 0
lfoot -35.6384 27.0326 0.000516589
ltoes 27.946 -0 0
rfemur -53.5323 -18.4081 24.9698
rtibia 70.5092 -0 0
rfoot 10.8157 29.0443 0.0128091
rtoes -9.92297 0 0
lowerback 2.93188 -3.72097 -3.94757
upperback -0.475286 -5.08257 1.31043
thorax -1.66755 -2.49534 3.75435
lowerneck -9.34769 -8.1918 0.3096
upperneck 15.4153 -11.6259 2.68233
head 6.36772 -5.38081 -0.159697
lclavicle 1.06499e-13 1.34518e-14 -1.62474e-32
lhumerus -22.3497 -45.18 95.7701
lradius 59.7862 -0 0
lwrist 20.3067 0 0
lhand -11.3093 -0.959554 0.000546903
lfingers 7.12502 -0 0
lthumb 14.7225 28.4974 0.000451308
rclavicle 1.06499e-13 1.34518e-14 -1.62474e-32
rhumerus 20.138 1.74977 -70.9705
rradius 111.147 -0 0
rwrist -58.6401 0 0
rhand -29.4343 -26.3024 -1.90922e-05
rfingers 7.12502 -0 0
rthumb -2.77113 -56.264 -1.84297e-05
618
root 5.68578 16.7823 -3.85336 2.68608 43.3589 -5.63334
lfemur -16.7083 25.8585 -23.9752
ltibia 37.5976 -0 0
lfoot -35.6547 26.9777 0.00202173
ltoes 27.8901 -0 0
rfemur -53.5739 -18.4809 25.0348
rtibia 70.5069 -0 0
rfoot 10.7094 28.8455 0.0501376
rtoes -9.83316 0 0
lowerback 2.91582 -3.72597 -3.96118
upperback -0.481111 -5.08929 1.2995
thorax -1.66373 -2.49868 3.7496
lowerneck -9.35069 -8.18314 0.304411
upperneck 15.3458 -11.6143 2.7029
head 6.34902 -5.37531 -0.150017
lclavicle 1.06353e-13 1.32593e-14 -6.35857e-32
lhumerus -22.3709 -45.3284 95.8508
lradius 59.863 -0 0
lwrist 20.3336 0 0
lhand -11.2707 -0.934986 0.00214036
lfingers 7.12502 -0 0
lthumb 14.7596 28.5185 0.00176624
rclavicle 1.06353e-13 1.32593e-14 -6.35857e-32
rhumerus 19.79 1.69864 -71.0131
rradius 110.867 -0 0
rwrist -58.4258 0 0
rhand -29.4341 -26.4315 -7.47228e-05
rfingers 7.12502 -0 0
rthumb -2.77088 -56.3931 -7.21299e-05
619
root 5.68435 16.7766 -3.83701 2.881 43.0104 -5.48449
lfemur -16.685 25.8433 -24.0362
ltibia 37.5803 -0 0
lfoot -35.6812 26.8884 0.00443482
ltoes 27.7992 -0 0
rfemur -53.6417 -18.5993 25.1406
rtibia 70.5032 -0 0
rfoot 10.5364 28.5223 0.110035
rtoes -9.68719 0 0
lowerback 2.88973 -3.73412 -3.98329
upperback -0.490577 -5.10021 1.28172
thorax -1.65753 -2.50411 3.74189
lowerneck -9.35557 -8.16906 0.295978
upperneck 15.2328 -11.5956 2.73629
head 6.31862 -5.36636 -0.134287
lclavicle 1.06115e-13 1.29464e-14 -1.39478e-31
lhumerus -22.4063 -45.5696 95.9826
lradius 59.9878 -0 0
lwrist 20.3774 0 0
lhand -11.2081 -0.895051 0.00469502
lfingers 7.12502 -0 0
lthumb 14.8199 28.5527 0.00387435
rclavicle 1.06115e-13 1.29464e-14 -1.39478e-31
rhumerus 19.2246 1.615 -71.0817
rradius 110.413 -0 0
rwrist -58.0773 0 0
rhand -29.4337 -26.6413 -0.000163922
rfingers 7.12502 -0 0
rthumb -2.77049 -56.603 -0.000158234
620
root 5.68239 16.7687 -3.81471 3.1431 42.5346 -5.28544
lfemur -16.6533 25.8225 -24.1193
ltibia 37.5567 -0 0
lfoot -35.7172 26.7667 0.00765969
ltoes 27.6752 -0 0
rfemur -53.7345 -18.7606 25.2852
rtibia 70.4981 -0 0
rfoot 10.2999 28.0812 0.190146
rtoes -9.4881 0 0
lowerback 2.85415 -3.74525 -4.01345
upperback -0.503482 -5.11511 1.25748
thorax -1.64906 -2.51151 3.73136
lowerneck -9.36223 -8.14986 0.284473
upperneck 15.0787 -11.5698 2.78176
head 6.27716 -5.35414 -0.11284
lclavicle 1.0579e-13 1.25197e-14 -2.40895e-31
lhumerus -22.456 -45.8986 96.1636
lradius 60.1581 -0 0
lwrist 20.4372 0 0
lhand -11.1226 -0.840579 0.00810902
lfingers 7.12502 -0 0
lthumb 14.9021 28.5995 0.00669158
rclavicle 1.0579e-13 1.25197e-14 -2.40895e-31
rhumerus 18.4535 1.4998 -71.174
rradius 109.793 -0 0
rwrist -57.6021 0 0
rhand -29.4331 -26.9275 -0.000283151
rfingers 7.12502 -0 0
rthumb -2.76995 -56.8892 -0.000273325
